<svg xmlns="http://www.w3.org/2000/svg" width="320" height="320" version="1.0" viewBox="0 0 3333.33 3333.33" shape-rendering="geometricPrecision" text-rendering="geometricPrecision" image-rendering="optimizeQuality" fill-rule="evenodd" clip-rule="evenodd"><path d="M3149.43 980c-.02-56.05-12.01-105.57-36.25-148.07-23.81-41.8-59.47-76.83-107.3-104.54-394.83-227.66-790.05-454.63-1184.75-682.52-106.41-61.43-209.58-59.2-315.21 3.12-157.15 92.68-943.97 543.47-1178.43 679.28-96.56 55.9-143.55 141.44-143.57 252.64-.15 457.84 0 915.67-.15 1373.53 0 54.81 11.5 103.38 34.68 145.25 23.82 43.07 59.98 79.06 108.91 107.38 234.48 135.81 1021.41 586.56 1178.52 679.26 105.67 62.35 208.84 64.58 315.29 3.12 394.72-227.91 789.95-454.86 1184.84-682.52 48.94-28.31 85.09-64.33 108.92-107.37l1.07-1.96 1.06-1.98 1.04-1.99 1.02-2 1.01-2 .99-2.02.97-2.03.96-2.04.94-2.04.92-2.06.9-2.07.89-2.07.87-2.08.85-2.09.83-2.1.81-2.11.8-2.13.78-2.13.77-2.14.75-2.15c.74-2.16 1.46-4.32 2.15-6.51.46-1.46.91-2.92 1.35-4.39 7.48-24.98 11.69-51.81 12.65-80.42l.07-2.53.06-2.54.04-2.54.02-2.56.01-2.56s0-915.44-.15-1373.3zm-1176.56 477.97s-27.42-250.02-293.24-250.02-329.4 287-329.4 465.78c0 117.62 47.11 463.43 329.4 463.43 305.82 0 294.05-267.07 294.05-267.07l439.89 25.15c0 230.9-141.12 639.48-731.59 639.48-364.63 0-832.77-211.72-832.77-860.99 0-649.28 477.55-875.11 832.77-875.11 557.53 0 752 470.48 752 662.61l-461.1-3.26zm1162.5 992.88c.46-1.46.91-2.92 1.35-4.39l-1.35 4.39z" fill-rule="nonzero"/></svg>