<svg xmlns="http://www.w3.org/2000/svg" width="320" height="320" version="1.0" viewBox="0 0 3333.33 3333.33" shape-rendering="geometricPrecision" text-rendering="geometricPrecision" image-rendering="optimizeQuality" fill-rule="evenodd" clip-rule="evenodd"><path d="M1283.85 1885.43c76.01 132.7 218.9 222.2 382.81 222.2 164.93 0 308.63-90.64 384.25-224.75l-380.17-220.22-386.89 222.78z" fill="#1a4674" fill-rule="nonzero"/><path d="M3149.43 980c-.02-56.05-12.01-105.57-36.25-148.07-23.81-41.8-59.47-76.83-107.3-104.54-394.83-227.66-790.05-454.63-1184.75-682.52-106.41-61.43-209.58-59.2-315.21 3.12-157.15 92.68-943.97 543.47-1178.43 679.28-96.56 55.9-143.55 141.44-143.57 252.64-.15 457.84 0 915.67-.15 1373.53 0 54.81 11.5 103.38 34.68 145.25 23.82 43.07 59.98 79.06 108.91 107.38 234.48 135.81 1021.41 586.56 1178.52 679.26 105.67 62.35 208.84 64.58 315.29 3.12 394.72-227.91 789.95-454.86 1184.84-682.52 48.94-28.31 85.09-64.33 108.92-107.37l1.07-1.96 1.06-1.98 1.04-1.99 1.02-2 1.01-2 .99-2.02.97-2.03.96-2.04.94-2.04.92-2.06.9-2.07.89-2.07.87-2.08.85-2.09.83-2.1.81-2.11.8-2.13.78-2.13.77-2.14.75-2.15c.74-2.16 1.46-4.32 2.15-6.51.46-1.46.91-2.92 1.35-4.39 7.48-24.98 11.69-51.81 12.65-80.42l.07-2.53.06-2.54.04-2.54.02-2.56.01-2.56s0-915.44-.15-1373.3zm-79.39 741.98h-112.81v112.84h-112.84v-112.84h-112.8v-112.8h112.8v-112.81h112.84v112.81h112.81v112.8zM1666.67 681.76c360.7 0 676.09 193.94 847.68 483.2l5.16 8.79-428.67 246.85c-84.95-146.07-243.04-244.37-424.17-244.37-270.85 0-490.44 219.57-490.44 490.43 0 88.57 23.61 171.6 64.68 243.32 84.54 147.58 243.45 247.12 425.76 247.12 181.41 0 339.74-98.6 424.56-245.07l2.8-4.9 428.03 247.99c-169.71 296.55-489.22 496.44-855.39 496.44-365.5 0-684.51-199.09-854.46-494.77-82.97-144.35-130.44-311.69-130.44-490.14 0-543.93 440.94-984.89 984.9-984.89zm878.91 814.6v112.81h112.8v112.8h-112.8v112.84h-112.81v-112.84h-112.82v-112.8h112.82v-112.81h112.81zm589.78 954.48c.46-1.46.91-2.92 1.35-4.39l-1.35 4.39z" fill-rule="nonzero"/></svg>