<svg xmlns="http://www.w3.org/2000/svg" width="320" height="320" version="1.0" viewBox="0 0 3333.33 3333.33" shape-rendering="geometricPrecision" text-rendering="geometricPrecision" image-rendering="optimizeQuality" fill-rule="evenodd" clip-rule="evenodd"><path d="M3333.33 1666.66C3333.33 746.19 2587.14-.01 1666.66-.01 746.19-.01-.01 746.18-.01 1666.66s746.19 1666.67 1666.67 1666.67 1666.67-746.19 1666.67-1666.67zm-1748.44 601.56a769.767 769.767 0 01-364.58 77.09c-168.47 7.38-331.93-58.3-448.44-180.21-115.77-129.78-176.15-299.71-168.23-473.44-8.15-188.26 60.24-371.81 189.59-508.85 126.44-129.36 301.51-199.5 482.29-193.23a770.732 770.732 0 01309.37 52.08v164.06a624.998 624.998 0 00-312.5-78.64c-137.62-4.56-270.51 50.49-364.58 151.04-97.53 111.17-147.96 255.94-140.63 403.64-7.22 139.59 39.81 276.57 131.25 382.3 88.71 95.38 214.63 147.31 344.79 142.19a646.979 646.979 0 00342.19-88.02l-.52 150zm1163.02-890.1l-20.83 96.87h-239.59l-57.29 275h257.29l-24.48 96.87h-252.08l-80.73 364.59h-115.11l78.64-364.59h-229.16l-77.09 364.59h-112.5l77.09-364.59H1710.4l18.23-96.87h242.71l55.73-274.47h-253.65l19.27-96.88h253.65l77.08-368.23h116.15l-77.09 368.23h230.73l78.64-368.23h112.5l-77.08 368.23 240.63-.52zm-373.44 96.87h-231.25l-59.9 275h232.29l58.86-275z" fill-rule="nonzero"/></svg>