<svg xmlns="http://www.w3.org/2000/svg" width="320" height="320" version="1.0" viewBox="0 0 3333.33 3333.33" shape-rendering="geometricPrecision" text-rendering="geometricPrecision" image-rendering="optimizeQuality" fill-rule="evenodd" clip-rule="evenodd"><path d="M3270.46 1518.17L1815.08 62.87c-83.76-83.83-219.7-83.83-303.56 0l-302.21 302.22 383.37 383.37c89.09-30.1 191.24-9.91 262.27 61.11 71.35 71.46 91.4 174.5 60.57 263.89l369.47 369.48c89.39-30.79 192.52-10.86 263.92 60.64 99.77 99.74 99.77 261.4 0 361.21-99.81 99.81-261.47 99.81-361.31 0-75.05-75.12-93.59-185.36-55.59-277.82l-344.56-344.57-.04 906.76c24.32 12.07 47.3 28.13 67.56 48.31 99.78 99.74 99.78 261.4 0 361.29-99.81 99.78-261.54 99.78-361.2 0-99.78-99.89-99.78-261.55 0-361.29 24.65-24.61 53.18-43.23 83.61-55.74v-915.2c-30.43-12.44-58.92-30.94-83.61-55.74-75.59-75.49-93.78-186.42-55.04-279.25l-377.88-377.96-997.92 997.87c-83.86 83.9-83.86 219.85 0 303.68l1455.39 1455.34c83.79 83.83 219.7 83.83 303.6 0L3270.49 1821.9c83.83-83.86 83.83-219.89 0-303.72z" fill-rule="nonzero"/></svg>