<svg xmlns="http://www.w3.org/2000/svg" width="320" height="320" version="1.0" viewBox="0 0 3333.33 3333.33" shape-rendering="geometricPrecision" text-rendering="geometricPrecision" image-rendering="optimizeQuality" fill-rule="evenodd" clip-rule="evenodd"><path d="M333.33 0C150 0 0 150 0 333.33V3000c0 183.33 150 333.33 333.33 333.33H3000c183.33 0 333.33-150 333.33-333.33V333.33C3333.33 150 3183.33 0 3000 0H333.33zm637.26 2724.53l235.6-148.49c45.43 83.93 86.79 154.95 185.98 154.95 95.06 0 155-38.73 155-189.36V1517.24h289.3V2545.9c0 312.04-175.65 454.08-431.93 454.08-231.44 0-365.76-124.81-433.95-275.44zm1023.03-32.28l235.55-142.04c62.03 105.46 142.63 182.94 285.2 182.94 119.9 0 196.33-62.43 196.33-148.52 0-103.28-78.54-139.87-210.79-200.12l-72.32-32.31c-208.74-92.5-347.17-208.71-347.17-454.05 0-225.98 165.3-398.16 423.63-398.16 183.93 0 316.2 66.72 411.23 241.04l-225.25 150.66c-49.63-92.53-103.33-129.13-185.98-129.13-84.73 0-138.46 55.97-138.46 129.13 0 90.39 53.73 126.99 177.71 182.94l72.33 32.28c245.93 109.76 384.39 221.65 384.39 473.42 0 271.19-204.6 419.66-479.45 419.66-268.63 0-442.23-133.42-526.93-307.74z" fill-rule="nonzero"/></svg>