<svg xmlns="http://www.w3.org/2000/svg" width="320" height="320" version="1.0" viewBox="0 0 3333.33 3333.33" shape-rendering="geometricPrecision" text-rendering="geometricPrecision" image-rendering="optimizeQuality" fill-rule="evenodd" clip-rule="evenodd"><defs><style>.prefix__fil0{fill:#000;fill-rule:nonzero}</style></defs><g id="prefix__Layer_x0020_1"><g id="prefix___1969920573456"><path class="prefix__fil0" d="M1229.22 2577.85s-127.38 74.07 90.65 99.14c264.14 30.13 399.14 25.81 690.23-29.28 0 0 76.53 47.98 183.41 89.55-652.54 279.67-1476.82-16.2-964.29-159.41zM1149.48 2212.9s-142.87 105.76 75.33 128.33c282.17 29.11 505 31.49 890.58-42.76 0 0 53.33 54.07 137.19 83.64-788.95 230.7-1667.71 18.19-1103.09-169.2zM1821.69 1593.83c160.79 185.11-42.24 351.69-42.24 351.69s408.26-210.75 220.76-474.67c-175.11-246.12-309.41-368.41 417.59-790.04 0 0-1141.14 285-596.11 913.01z"/><path class="prefix__fil0" d="M2684.72 2847.78s94.26 77.67-103.82 137.76c-376.65 114.1-1567.67 148.56-1898.53 4.55-118.94-51.74 104.1-123.55 174.26-138.61 73.17-15.87 114.98-12.91 114.98-12.91-132.26-93.18-854.93 182.96-367.07 262.04 1330.45 215.76 2425.28-97.15 2080.18-252.82zM1290.48 1834.78s-605.83 143.9-214.54 196.15c165.21 22.12 494.56 17.11 801.35-8.59 250.72-21.15 502.47-66.12 502.47-66.12s-88.41 37.86-152.37 81.54c-615.21 161.8-1803.67 86.53-1461.53-78.98 289.35-139.87 524.62-124 524.62-124zM2377.26 2442.25c625.38-324.97 336.23-637.27 134.41-595.2-49.47 10.3-71.52 19.22-71.52 19.22s18.36-28.77 53.44-41.22c399.28-140.37 706.35 414.01-128.89 633.58 0 .01 9.68-8.64 12.57-16.38zM2000.21 0s346.35 346.46-328.5 879.23c-541.16 427.37-123.4 671.04-.22 949.45-315.88-285-547.7-535.89-392.18-769.4 228.27-342.76 860.64-508.95 720.9-1059.29z"/><path class="prefix__fil0" d="M1351.93 3322.85c600.3 38.43 1522.11-21.32 1543.95-305.36 0 0-41.96 107.68-496.11 193.19-512.36 96.42-1144.29 85.16-1519.09 23.37.01-.01 76.72 63.5 471.26 88.8z"/></g></g></svg>