<svg xmlns="http://www.w3.org/2000/svg" width="320" height="320" version="1.0" viewBox="0 0 3333.33 3333.33" shape-rendering="geometricPrecision" text-rendering="geometricPrecision" image-rendering="optimizeQuality" fill-rule="evenodd" clip-rule="evenodd"><path d="M1956.2 371.52C1816.3 205.54 1695.83 36.95 1671.22 1.94c-2.59-2.59-6.48-2.59-9.07 0-24.61 35.01-145.08 203.59-284.98 369.58-1200.8 1531.48 189.12 2565 189.12 2565l11.66 7.78c10.36 159.49 36.27 389.03 36.27 389.03h103.62s25.91-228.24 36.27-389.03l11.66-9.08c1.3 1.3 1391.23-1032.23 190.42-2563.71zm-290.17 2541.66s-62.17-53.17-79.02-80.39v-2.61l75.13-1667.63c0-5.19 7.77-5.19 7.77 0l75.13 1667.63v2.61c-16.84 27.22-79.02 80.39-79.02 80.39z" fill-rule="nonzero"/></svg>