<svg xmlns="http://www.w3.org/2000/svg" width="320" height="320" version="1.0" viewBox="0 0 3333.33 3333.33" shape-rendering="geometricPrecision" text-rendering="geometricPrecision" image-rendering="optimizeQuality" fill-rule="evenodd" clip-rule="evenodd"><defs><style>.prefix__fil0{fill:#000;fill-rule:nonzero}</style></defs><g id="prefix__Layer_x0020_1"><path class="prefix__fil0" d="M3070.35 2561.35c-181.36-4.53-321.93 13.62-439.82 63.49-34 13.6-88.42 13.61-92.95 56.68 18.14 18.15 20.41 47.62 36.28 72.55 27.22 45.32 74.81 106.56 117.89 138.3 47.6 36.27 95.22 72.54 145.09 104.28 88.43 54.42 188.18 86.15 274.33 140.57 49.89 31.71 99.74 72.54 149.62 106.55 24.94 18.12 40.8 47.61 72.55 58.94v-6.8c-15.87-20.41-20.41-49.88-36.27-72.55-22.66-22.67-45.34-43.08-68.02-65.75-65.75-88.41-147.36-165.5-235.78-228.97-72.54-49.88-231.24-117.89-260.72-201.78l-4.54-4.52c49.88-4.54 108.82-22.67 156.43-36.28 77.09-20.41 147.37-15.87 226.71-36.27 36.27-9.07 72.55-20.41 108.82-31.74v-20.4c-40.79-40.82-70.28-95.22-113.36-133.76-115.61-99.77-242.58-197.24-374.07-278.85-70.29-45.34-160.97-74.83-235.78-113.35-27.19-13.63-72.55-20.41-88.4-43.09-40.83-49.87-63.5-115.61-92.96-174.57-65.72-124.7-129.23-262.97-185.91-394.46-40.8-88.43-65.74-176.85-115.62-258.46-233.5-385.41-487.43-618.92-877.37-847.9-83.89-47.61-183.63-68.02-290.19-92.94-56.67-2.28-113.35-6.8-170.03-9.08-36.27-15.87-72.55-58.94-104.3-79.35C442.78 90.22 109.5-86.6 14.28 146.91c-61.21 147.36 90.69 292.44 142.83 367.27 38.56 52.14 88.42 111.08 115.63 170.04 15.87 38.51 20.4 79.35 36.27 120.15 36.28 99.73 70.28 210.84 117.89 303.8 24.95 47.6 52.14 97.48 83.89 140.55 18.13 24.93 49.87 36.28 56.68 77.08-31.73 45.35-34.01 113.36-52.16 170.04-81.61 256.18-49.87 573.57 65.76 761.74 36.27 56.66 122.43 181.38 238.04 133.76 102.02-40.81 79.35-170.03 108.82-283.39 6.81-27.23 2.28-45.35 15.87-63.48.01 2.26 0 4.54 0 4.54 31.74 63.47 63.48 124.69 92.94 188.16 70.29 111.08 192.7 226.71 294.72 303.8 54.43 40.79 97.5 111.08 165.51 136.03v-6.82h-4.54c-13.61-20.41-34-29.46-52.14-45.34-40.81-40.8-86.16-90.69-117.89-136.03-95.21-126.96-179.11-267.51-253.92-412.61-36.27-70.28-68.01-147.36-97.48-217.64-13.61-27.22-13.61-68.01-36.28-81.61-34 49.87-83.87 92.94-108.81 154.16-43.05 97.49-47.61 217.64-63.48 342.33-9.06 2.28-4.54 0-9.07 4.54-72.54-18.15-97.48-92.94-124.69-156.43-68.01-160.96-79.35-419.42-20.39-605.3 15.87-47.62 83.89-197.24 56.68-242.58-13.6-43.08-58.95-68.02-83.88-102.02-29.47-43.08-61.22-97.48-81.61-145.1-54.42-126.95-81.62-267.51-140.56-394.48-27.21-58.95-74.81-120.15-113.36-174.56-43.06-61.21-90.68-104.29-124.69-176.84-11.32-24.94-27.21-65.74-9.07-92.94 4.54-18.13 13.6-24.94 31.75-29.47 29.46-24.94 113.35 6.8 142.82 20.39 83.88 33.99 154.16 65.76 224.45 113.35 31.73 22.68 65.73 65.76 106.54 77.09h47.62c72.55 15.86 154.16 4.54 222.17 24.93 120.17 38.53 228.97 95.22 326.47 156.43 297 188.17 541.82 455.7 707.33 775.35 27.21 52.13 38.53 99.76 63.48 154.17 47.62 111.09 106.56 224.44 154.16 333.26 47.61 106.54 92.94 215.38 160.96 303.8 34.02 47.59 170.03 72.54 231.24 97.48 45.34 20.4 115.63 38.54 156.44 63.48 77.07 47.59 154.16 102.02 226.71 154.16 36.28 27.19 149.62 83.88 156.43 129.21z"/><path class="prefix__fil0" d="M757.89 591.24c-38.54 0-65.74 4.55-92.94 11.35v4.54h4.54c18.15 36.27 49.86 61.21 72.54 92.94 18.15 36.27 34 72.54 52.15 108.83 2.26-2.28 4.52-4.54 4.52-4.54 31.76-22.69 47.62-58.95 47.62-113.35-13.61-15.87-15.87-31.74-27.21-47.61-13.59-22.69-43.08-34.01-61.21-52.16z"/></g></svg>