<svg xmlns="http://www.w3.org/2000/svg" width="320" height="320" version="1.0" viewBox="0 0 3333.33 3333.33" shape-rendering="geometricPrecision" text-rendering="geometricPrecision" image-rendering="optimizeQuality" fill-rule="evenodd" clip-rule="evenodd"><path d="M1666.67 3333.33c-45.94 0-88.81-12.25-128.62-33.69l-407.29-241.92c-61.25-33.69-30.63-45.94-12.25-52.06 82.69-27.56 98-33.69 183.74-82.68 9.19-6.13 21.44-3.06 30.63 3.06l312.36 186.8c12.24 6.13 27.56 6.13 36.75 0l1221.86-707.39c12.25-6.13 18.37-18.37 18.37-33.69V960.03c0-15.31-6.12-27.56-18.37-33.69L1681.99 222.01c-12.25-6.12-27.56-6.12-36.75 0L423.37 926.34c-12.25 6.12-18.37 21.44-18.37 33.69v1411.73c0 12.24 6.12 27.56 18.37 33.69l333.8 192.93c180.68 91.87 293.98-15.31 293.98-122.49V1082.53c0-18.37 15.31-36.74 36.75-36.74h156.18c18.37 0 36.75 15.31 36.75 36.74v1393.36c0 241.92-131.68 382.79-361.35 382.79-70.43 0-125.56 0-281.74-76.56L316.2 2598.38c-79.63-45.94-128.62-131.68-128.62-223.55V963.1c0-91.87 49-177.61 128.62-223.55l1221.86-707.4c76.56-42.87 180.68-42.87 257.23 0l1221.86 707.4c79.63 45.94 128.62 131.68 128.62 223.55v1411.73c0 91.87-49 177.61-128.62 223.55l-1221.86 707.4c-39.81 18.37-85.74 27.56-128.61 27.56zm376.66-970.75c-535.91 0-646.15-244.99-646.15-453.22 0-18.37 15.31-36.75 36.75-36.75h159.24c18.37 0 33.69 12.24 33.69 30.62 24.5 162.3 94.93 241.93 419.54 241.93 257.24 0 367.48-58.18 367.48-195.99 0-79.62-30.62-137.8-431.78-177.61-333.79-33.69-542.03-107.18-542.03-373.6 0-248.05 208.24-395.04 557.34-395.04 391.98 0 584.9 134.74 609.4 428.73 0 9.19-3.06 18.37-9.19 27.56-6.13 6.12-15.31 12.25-24.5 12.25h-159.24c-15.31 0-30.62-12.25-33.69-27.56-36.75-168.43-131.68-223.55-382.79-223.55-281.73 0-315.42 97.99-315.42 171.49 0 88.81 39.81 116.37 419.54 165.37 376.66 49 554.28 119.43 554.28 382.79-3.06 269.49-223.55 422.6-612.46 422.6z" fill-rule="nonzero"/></svg>