<svg xmlns="http://www.w3.org/2000/svg" width="320" height="320" version="1.0" viewBox="0 0 3333.33 3333.33" shape-rendering="geometricPrecision" text-rendering="geometricPrecision" image-rendering="optimizeQuality" fill-rule="evenodd" clip-rule="evenodd"><defs><style>.prefix__fil0{fill:#000;fill-rule:nonzero}</style></defs><g id="prefix__Layer_x0020_1"><path id="prefix__path1948" class="prefix__fil0" d="M1647.04.03c-135.95.63-265.77 12.23-380.01 32.44-336.51 59.44-397.61 183.88-397.61 413.37v303.07h795.22v101.02l-795.22.01H570.98c-231.12 0-433.49 138.91-496.79 403.18-73.02 302.91-76.25 491.93 0 808.21 56.53 235.43 191.53 403.18 422.64 403.18l273.43-.01v-363.31c0-262.48 227.11-494.01 496.79-494.01h794.3c221.11 0 397.62-182.06 397.62-404.1V445.86c0-215.52-181.81-377.41-397.62-413.37C1924.74 9.73 1783-.59 1647.05.04zm-430.06 243.75c82.15 0 149.22 68.18 149.22 152 0 83.54-67.08 151.07-149.22 151.07-82.43 0-149.22-67.55-149.22-151.07 0-83.83 66.79-152 149.22-152z"/><path id="prefix__path1950" class="prefix__fil0" d="M2558.13 849.94v353.13c0 273.78-232.11 504.2-496.79 504.2h-794.31c-217.57 0-397.62 186.22-397.62 404.1v757.22c0 215.52 187.41 342.28 397.62 404.1 251.72 74.02 493.11 87.39 794.31 0 200.2-57.96 397.62-174.62 397.62-404.1v-303.06h-794.31v-101.02l794.31-.01h397.61c231.12 0 317.23-161.2 397.62-403.18 83.03-249.1 79.49-488.65 0-808.21-57.11-230.08-166.21-403.18-397.62-403.18l-298.44.01zm-446.74 1917.63c82.44 0 149.22 67.55 149.22 151.07 0 83.83-66.79 152-149.22 152-82.14 0-149.22-68.18-149.22-152 0-83.53 67.08-151.07 149.22-151.07z"/></g></svg>