<svg xmlns="http://www.w3.org/2000/svg" width="320" height="320" version="1.0" viewBox="0 0 3333.33 3333.33" shape-rendering="geometricPrecision" text-rendering="geometricPrecision" image-rendering="optimizeQuality" fill-rule="evenodd" clip-rule="evenodd"><defs><style>.prefix__fil0{fill:#000;fill-rule:nonzero}</style></defs><g id="prefix__Layer_x0020_1"><g id="prefix___1969920609504"><path class="prefix__fil0" d="M2740.6 1145.24a2373.463 2373.463 0 00-107.25-33.91c5.97-24.32 11.5-48.8 16.65-73.34 81.18-394.22 28.1-711.87-153.32-816.54-173.91-100.3-458.26 4.33-745.5 254.32-28.32 24.7-55.98 50.07-82.93 76.14-18.07-17.36-36.43-34.4-55.05-51-301.16-267.09-603.08-379.54-784.22-274.92C655.5 326.56 604.07 625.25 676.81 998.88c7.45 37.03 15.67 73.84 24.65 110.43-42.45 12.16-83.75 25.09-123.19 38.83C225.35 1271.33 0 1464.09 0 1664.07c0 206.51 242.06 413.78 609.55 539.16a1813.89 1813.89 0 0090.16 28.43c-9.86 39.33-18.57 78.93-26.07 118.81-69.84 367.11-15.34 658.68 157.97 758.7 178.85 103.2 479.13-2.9 771.74-258.54 23.17-20.1 46.34-41.46 69.56-64.09 29.2 28.32 59.11 55.76 89.83 82.33 283.46 243.76 563.2 342.02 736.24 242.06 179.01-103.63 237.12-416.79 161.59-797.81-5.81-29.03-12.43-58.67-19.99-89.01 21.09-6.19 41.74-12.6 62.01-19.28 382.17-126.64 630.74-331.45 630.74-540.75 0-200.86-232.63-394.93-592.73-518.83zm-895.69-561.89c246.11-214.23 476.11-298.53 581.17-238.28 111.58 64.36 154.8 323.89 84.63 664.38-4.55 22.24-9.48 44.31-14.9 66.22-146.47-32.76-296.39-56.91-445.93-70.22-85.72-123.52-180.48-241.12-281.77-351.82 24.93-24.05 50.45-47.44 76.52-70.28h.28zM984.05 1834.71c30.24 58.33 61.78 115.8 94.65 172.43a4280.328 4280.328 0 00104.62 171.45c-102.7-11.01-205.96-28.05-307.02-49.52 29.58-95.2 65.79-194.18 108.13-294.47l-.38.11zm0-334.79c-41.47-98.27-76.8-194.95-105.78-288.4 94.93-21.31 196.37-38.67 302.04-51.87a3964.564 3964.564 0 00-102.21 168.05 3902.46 3902.46 0 00-94.21 172.22h.17zm75.64 167.5c43.88-91.31 91.2-180.87 142.04-268.68 50.45-87.91 104.24-173.69 161.48-257.22 99.15-7.56 200.7-11.61 303.46-11.61 103.2 0 204.92 4.06 304.06 11.61 56.53 83.53 110.04 169.04 160.6 256.51 50.83 87.54 98.7 176.65 143.73 267.36-44.43 91.59-92.19 181.58-143.19 269.88a4640.45 4640.45 0 01-160 257.94c-98.81 7.23-201.03 10.74-305.21 10.74-103.74 0-204.64-3.18-301.76-9.59-57.57-84.03-111.85-170.19-162.9-258.38a4143.948 4143.948 0 01-142.31-268.68v.11zm1195.65 339.17c33.47-58.28 65.62-117.22 96.57-176.82 41.96 95.31 79.97 193.85 111.74 293.22-102.65 22.79-206.29 40.86-310.69 53.08a5486.574 5486.574 0 00102.26-169.64l.11.17zm95.09-506.57a5074.36 5074.36 0 00-95.64-173.31c-32.65-56.26-66.5-111.8-101.44-166.69 106.21 13.48 208.09 31.33 303.9 53.19-30.29 97.28-66.61 193.69-106.7 287.13l-.11-.33zm-682.34-744.35c68.8 75.15 135.35 155.07 196.32 236.85-131.24-6.3-262.6-6.3-393.95 0 64.8-85.5 131.13-164.93 197.85-236.8l-.22-.06zM900.57 349.18c111.58-64.47 357.96 27.55 617.98 258.43 16.65 14.79 33.36 30.13 50.01 46.07-102.21 110.54-197.19 228.41-283.85 351.72-149.1 13.09-298.58 36.92-444.72 69.18-8.6-34.13-16.27-68.53-23.06-103.09v.28c-62.78-320.28-21.15-561.73 83.64-622.31v-.27zM737.66 2094.56a1849.58 1849.58 0 01-82-25.69c-141.05-44.37-273.17-114.76-388.91-206.83-66.99-46.01-112.07-117.82-124.23-198.07 0-121.33 180.87-276.07 482.63-381.19 37.91-13.31 76.14-25.41 114.7-36.2 44.75 143.29 99.42 284.61 162.35 420.9-63.76 137.98-119.63 281.49-164.49 426.65l-.06.44zm771.91 649.26c-108.73 99.69-235.65 179.17-373.19 233.24-39.6 18.95-83.15 28.87-127.13 28.87-36.37 0-72.52-6.79-106.43-19.94-105.06-60.86-148.82-294.81-89.28-608.72 7.12-37.09 15.23-73.95 24.27-110.54 147.84 31.44 299.07 53.95 449.49 64.96 87.15 123.52 183.61 242.82 285.99 353.63-20.76 19.94-41.91 39.44-63.54 58.33l-.16.17zm162.63-161.15c-67.54-72.74-134.81-153.32-200.59-240.03 63.76 2.52 128.78 3.78 195.06 3.78 67.93 0 134.97-1.43 201.14-4.33-60.64 83.1-126.86 164.06-195.6 240.58zm864.74 198.12c-6.19 80.96-45.68 155.95-109.11 206.83-105.06 60.85-329.7-18.24-572.03-226.66-27.72-23.72-55.65-49.08-83.75-76.14 100.35-111.52 194.73-231.21 279.3-355 151.35-12.49 303.51-35.99 451.63-69.29 6.69 27.39 12.65 54.23 17.91 80.52 19.12 85.94 28.98 174.46 28.98 262.76 0 59.16-4.55 118.48-13.09 176.93l.16.06zm120.89-711.21c-18.41 6.08-37.09 11.89-56.26 17.42-46.23-144.17-103.36-286.15-168.66-422.32 63-134.47 117.66-273.99 162.08-415.91 33.91 9.7 67.1 20.27 98.98 31.17 308.72 106.1 496.82 263.2 496.82 384.03 0 129-203.33 296.23-533.35 405.51l.39.11z"/><path class="prefix__fil0" d="M1666.67 1366.43c164.39-.06 297.71 133.27 297.71 297.65 0 164.28-133.32 297.6-297.71 297.6-164.33 0-297.65-133.32-297.65-297.6v-.27c.22-164.22 133.43-297.27 297.65-297.27v-.11zm0 0z"/></g></g></svg>