<svg xmlns="http://www.w3.org/2000/svg" width="320" height="320" version="1.0" viewBox="0 0 3333.33 3333.33" shape-rendering="geometricPrecision" text-rendering="geometricPrecision" image-rendering="optimizeQuality" fill-rule="evenodd" clip-rule="evenodd"><path d="M2985.68.04c8.14-.52 15.86 3.65 19.91 10.73a21.383 21.383 0 01-.86 22.6l-823.79 1119.02a31.826 31.826 0 01-23.81 10.72c-9.1 0-17.77-3.91-23.81-10.72l-290.47-323.8a33.757 33.757 0 00-27.33-10.19 33.731 33.731 0 00-25.04 14.95l-176.19 223.8a37.313 37.313 0 004.76 38.1l523.8 542.84a31.817 31.817 0 0023.81 10.71c9.11 0 17.77-3.9 23.81-10.71L3219.01 480.98a21.99 21.99 0 0123.83-5.61 22.012 22.012 0 0114.27 19.9v2814.21c.39 6.43-1.99 12.72-6.54 17.27a22.439 22.439 0 01-17.27 6.54H100.05c-6.43.39-12.71-1.99-17.27-6.54a22.461 22.461 0 01-6.54-17.27V23.85a22.511 22.511 0 016.54-17.27A22.511 22.511 0 01100.05.04h2885.64zm-809.5 1899.95c-141.76-2.49-278.39 53.06-378.2 153.76-99.81 100.71-154.12 237.83-150.36 379.56 0 328.57 238.09 538.08 547.61 538.08a655.541 655.541 0 00399.99-123.8c10.77-9.78 12.8-25.96 4.76-38.1l-85.71-128.56c-9.64-11.05-26.03-13.1-38.09-4.76-74.5 50.87-162.18 79-252.37 80.95-166.67 0-271.43-104.76-290.47-228.57.35-5.11 4.41-9.18 9.52-9.52h719.03c15.33-1.04 27.53-13.24 28.57-28.57v-28.57c0-333.33-209.52-561.89-514.27-561.89zm-709.5-180.94a762.353 762.353 0 00-514.27-171.43c-323.8 0-523.8 190.47-523.8 419.04 0 519.03 790.45 352.37 790.45 595.22 0 76.19-76.19 152.38-238.09 152.38-153.76 1.27-302.12-56.71-414.27-161.9a31.83 31.83 0 00-24.89-8.42c-9.12.91-17.41 5.72-22.73 13.18l-123.8 171.42c-8.04 12.14-6.01 28.31 4.76 38.1 128.56 119.04 309.51 199.99 561.89 199.99 371.42 0 552.37-190.46 561.89-438.08 0-514.27-790.45-366.65-790.45-585.7 0-80.95 71.43-138.09 195.23-138.09a590.976 590.976 0 01376.18 128.57 30.147 30.147 0 0022.43 6.64 30.12 30.12 0 0020.43-11.41l123.8-166.66a30.135 30.135 0 006.64-22.43 30.103 30.103 0 00-11.4-20.42zm714.27 390.46c129.51-7.24 241.32 89.8 252.37 219.04a10.24 10.24 0 01-9.52 9.53h-485.7a10.24 10.24 0 01-9.52-9.53c15.92-126.71 124.69-221.11 252.37-219.04z" fill-rule="nonzero"/></svg>