<svg xmlns="http://www.w3.org/2000/svg" width="320" height="320" version="1.0" viewBox="0 0 3333.33 3333.33" shape-rendering="geometricPrecision" text-rendering="geometricPrecision" image-rendering="optimizeQuality" fill-rule="evenodd" clip-rule="evenodd"><path d="M17.06 46.24C10.19 18.41 35.99-6.43 63.54 1.5l802.53 231.05c7.19-.02 14.29 2.02 20.36 5.87l1582.76 455.69c6.56.13 13.02 2 18.65 5.36l802.59 231.08c27.57 7.93 36.2 42.76 15.52 62.65L884.02 3322.9c-20.68 19.89-55.12 9.93-62-17.91L420.27 1678.58a37.37 37.37 0 01-1.26-5.11L17.07 46.24zM704.51 2518.6l174.36 705.85 525.06-505.09-699.42-200.77zm540.84-558.21l-508.35 490 677.21 194.42-168.86-684.42zm75.46-5.24l168.32 682.26 506.97-487.67-675.29-194.59zm-813.37-234.37l169.06 684.44 507.75-489.41-676.82-195.03zm1337.41-338.89l-516.51 497.87 688.32 198.35-171.81-696.22zm72.37-17.71l171.81 696.2 517.93-498.2-689.74-198zm-871.55-213.32l-517.61 498.32 689.58 198.69-171.96-697zm72.1-18.8l168.86 684.4 508.35-490-677.22-194.4zM304.61 899.63l171.85 695.78 517.25-497.95-689.1-197.82zm2143.26-96.59l-508.36 490 677.22 194.42-168.86-684.42zm72.65-16.63l171.26 694.15 515.95-496.3-687.21-197.86zm-875.14-212.87l-506.07 487.19 674.02 193.48-167.96-680.67zm72.23-18.3l169.09 685.23 508.5-490.15-677.6-195.08zM845.66 341.5L337.31 831.51l677.22 194.42L845.67 341.5zm72.71-16.36l168.44 682.69 507.12-488.19-675.56-194.5zM104.85 90.92l171.81 695.57 516.14-497.5L104.84 90.93z" fill-rule="nonzero"/></svg>