<svg xmlns="http://www.w3.org/2000/svg" width="320" height="320" version="1.0" viewBox="0 0 3333.33 3333.33" shape-rendering="geometricPrecision" text-rendering="geometricPrecision" image-rendering="optimizeQuality" fill-rule="evenodd" clip-rule="evenodd"><path d="M333.33 0C150 0 0 150 0 333.33V3000c0 183.33 150 333.33 333.33 333.33H3000c183.33 0 333.33-150 333.33-333.33V333.33C3333.33 150 3183.33 0 3000 0H333.33zm2294.2 1513.49a403.99 403.99 0 01202.98 116.95c30.09 31.5 56.24 66.54 77.8 104.39 1.02 4.08-140.06 98.86-225.62 151.74-3.12 2.09-15.43-11.32-29.4-31.94a183.939 183.939 0 00-64.49-65.32 184.135 184.135 0 00-87.99-26.02c-98.35-6.73-161.74 44.76-161.26 130.87-.85 21.15 3.97 42.13 13.97 60.8 21.65 44.75 61.82 71.59 188.02 126.28 232.3 100 331.99 165.93 393.52 259.6a471.022 471.022 0 0162.78 193.62c6.55 68.33-1.9 137.3-24.79 202.04a434.667 434.667 0 01-144.48 177.44 434.928 434.928 0 01-214.54 79.57 995.103 995.103 0 01-247.26-2.54 596.354 596.354 0 01-330.18-172.03c-33.59-37.83-62.03-79.9-84.56-125.18 9.47-7.07 19.46-13.42 29.84-18.99 14.44-8.23 69.05-39.62 120.54-69.49l93.51-54.78 19.52 28.46a436.065 436.065 0 00123.27 117.97 301.3 301.3 0 00160.16 36.77 301.674 301.674 0 00155.61-52.73 141.178 141.178 0 0041.88-86.82c3.34-32.94-5.02-66.02-23.63-93.43-25.21-36.05-76.7-66.37-223.06-129.84a803.88 803.88 0 01-305.82-187.63 428.049 428.049 0 01-89.09-162.25 648.952 648.952 0 01-5.68-207.09 395.546 395.546 0 01117.86-206.47c59.49-55.11 134.53-90.58 214.87-101.62 81.83-9.78 164.66-7.2 245.72 7.67zm-761.8 135.4l1.02 132.76h-422.77v1200.53h-298.13V1781.93H723.09v-130.4c-1.14-44.65.08-89.31 3.65-133.84 1.57-2.1 258.61-3.13 570.22-2.57l567.14 1.54 1.63 132.22z" fill-rule="nonzero"/></svg>