<svg xmlns="http://www.w3.org/2000/svg" width="272" height="320" version="1.0" viewBox="0 0 2833.33 3333.33" xmlns:xlink="http://www.w3.org/1999/xlink" shape-rendering="geometricPrecision" text-rendering="geometricPrecision" image-rendering="optimizeQuality" fill-rule="evenodd" clip-rule="evenodd"><defs><linearGradient id="prefix__a" gradientUnits="userSpaceOnUse" x1="1487.86" y1="2835.81" x2="2836.69" y2="1492.55"><stop offset="0" stop-color="#191e2d"/><stop offset="1" stop-color="#206e8c"/></linearGradient><linearGradient id="prefix__b" gradientUnits="userSpaceOnUse" xlink:href="#prefix__a" x1="-3.37" y1="497.52" x2="1345.47" y2="1840.78"/></defs><path d="M671.05 1990.05h621.35c27.44 0 49.7 22.28 49.7 49.75v248.75c0 27.46-22.26 49.74-49.7 49.74H671.05c-185.3 0-353.09-75.19-474.5-196.72C75.12 2020.05 0 1852.12 0 1666.66c0-185.45 75.13-353.38 196.55-474.91 121.11-121.22 288.35-196.33 473.1-196.71l324.5-.02V298.49c0-82.42 33.4-157.07 87.35-211.07h.2c53.96-54 128.47-87.43 210.69-87.43 27.44 0 49.7 22.28 49.7 49.75v1741.3c0 27.46-22.26 49.75-49.7 49.75h-248.54c-27.44 0-49.7-22.28-49.7-49.75v-447.78l-323.11.01c-89.23 0-170.01 36.21-228.48 94.71-58.45 58.51-94.63 139.38-94.63 228.67 0 89.31 36.18 170.17 94.63 228.68 58.46 58.5 139.25 94.71 228.48 94.71z" fill="url(#prefix__b)"/><path d="M2162.28 1343.28h-621.35c-27.44 0-49.7-22.28-49.7-49.75v-248.75c0-27.46 22.26-49.74 49.7-49.74h621.35c185.3 0 353.08 75.19 474.5 196.72 121.43 121.52 196.55 289.45 196.55 474.91 0 185.45-75.13 353.38-196.55 474.91-121.11 121.22-288.35 196.33-473.1 196.71l-324.51.02v696.53c0 82.42-33.39 157.07-87.35 211.07h-.2c-53.97 54-128.47 87.43-210.69 87.43-27.44 0-49.7-22.28-49.7-49.75v-1741.3c0-27.46 22.26-49.75 49.7-49.75h248.54c27.44 0 49.7 22.28 49.7 49.75v447.78l323.11-.01c89.23 0 170.01-36.21 228.48-94.71 58.45-58.51 94.63-139.38 94.63-228.68 0-89.3-36.18-170.16-94.63-228.67-58.46-58.5-139.25-94.71-228.48-94.71z" fill="url(#prefix__a)"/></svg>